# xmcd CD database file generated by Grip 3.3.1
# 
# Track frame offsets:
#       150
#       13462
#       25157
#       39818
#       54010
#       66638
#       78095
#       91449
#       105288
#       116447
#       127243
#       140309
#       153325
#       165519
#       177442
# 
# Disc length: 2528 seconds
# 
# Revision: 2
# Processed by: cddbd v1.5.2PL0 Copyright (c) Steve Scherf et al.
# Submitted via: Grip 3.3.1
# 
DISCID=b909de0f
DTITLE=Various Artist - Simply Blues: Blues'n'Boogie
DYEAR=2005
DGENRE=Blues
TTITLE0=Little Esther - Wedding Boogie
TTITLE1=Billy Wright - Married Woman's Boogie
TTITLE2=Big Joe Turner - My Gal's A Jockey
TTITLE3=Paul Williams - The Hucklebuck
TTITLE4=Billy Eckstine - Lonesome Lover Blues
TTITLE5=Helen Humes - Airplane Blues
TTITLE6=Tommy Brown - Bouble-Faced Deacon
TTITLE7=Big Jay McNeely - Head Hunter
TTITLE8=Johnny Otis - Ain't Nuthin' Shakin'
TTITLE9=Nappy Brown - Don't Be Angry
TTITLE10=The Ravens - Write Me A Letter
TTITLE11=Pete Johnson - Atomic Boogie
TTITLE12=Doc Pomus - My Good Pott
TTITLE13=Varetta Dillard - Easy, Easy Baby
TTITLE14=Lavern Baker - I Want To Rock
EXTD=
EXTT0=
EXTT1=
EXTT2=
EXTT3=
EXTT4=
EXTT5=
EXTT6=
EXTT7=
EXTT8=
EXTT9=
EXTT10=
EXTT11=
EXTT12=
EXTT13=
EXTT14=
PLAYORDER=
